<svg xmlns="http://www.w3.org/2000/svg" viewBox="0 0 548.72 367.74"><defs><style>.cls-1{font-size:65px;font-family:ClarendonBT-Black, Clarendon Blk BT;font-weight:800;}.cls-2,.cls-3{fill-rule:evenodd;}.cls-3{fill:#bed800;}.cls-4{font-size:24px;font-family:FuturaBT-Bold, Futura Md BT;font-weight:700;letter-spacing:0.05em;}</style></defs><g id="Layer_2" data-name="Layer 2"><g id="Layer_1-2" data-name="Layer 1"><text class="cls-1" transform="translate(1.89 325.55) scale(1.17 1)">NEW</text><text class="cls-1" transform="translate(211.31 325.12) scale(1.17 1)">JERSEY</text><path class="cls-2" d="M296.07,15.14l19.4.64c1.42,34,.86,62.79,1,89.61.26,9.58.31,20,.08,29.66-4-3.83-8.78-8.73-12.39-12.87-.12-4.65-.19-11.38-.34-16.05l-10.09.25,0,5.11a151.82,151.82,0,0,1-11.66-11.92c-.43-5.71-.36-11.59-1-17.52L271,82.48l.3,5.77c-3.6-3.4-10.25-10.12-13.5-13.8-.5-6.9-1-13.06-1.85-19.26l-10.07,1.08.51,6.1c-3.56-3.18-9.77-9.76-12.89-13.22-.85-7.53-1.56-14-2.23-20.34l-10,1,.73,7.45c-4.23-4.05-8.6-8.57-13-13.55l14.27-1.68c-.2-2-1.14-10.24-1.35-12.84-14.73,1.48-45.83,4.9-59.11,6.53l1.34,13.32,16.05-1.89,15.76,136c3-.48,19.46-7.85,29-9.44C218,97,214,62.51,211.36,38.07c3.65,3.74,8.79,9.39,12,12.53,3.5,32.11,8.42,75.56,10.84,100.49l9.8-1.91c-4.4-44.89-8.1-73.36-9-86.54,4.55,4.66,8.62,8.88,12.78,13.19,2.87,23.24,5.26,48.6,6.91,71.84l9.93-1.12c-1.54-19.31-3.88-38.68-5.11-58,3.54,3.84,7.59,7.75,12.69,13.12.88,14.68,1.52,29.55,2.32,44.27l10.21.25-1.83-33.06c2.41,2.56,9.59,10.11,11,11.7.18,7.32.44,15.4.58,22.43l10,1.82-.2-13.64c3.4,3.44,8.66,8.65,11.78,12.2.06,7.09-.28,14.21-.5,21.32-.64,14.34.61,29-6,39.54-10.44,16.71-35.93,9.2-52.16,2.36-2.7-1.15-5.18-2.34-7.92-3.61-2.57-1.19-5.34-2.91-7.77-3.88a50.3,50.3,0,0,0,4.45,7.08c11.22,15.75,29.7,29.22,50.86,28.85C316.74,239,330,225.75,336,208.4c2.12-6.14,2.58-12.07,3.08-19.31,1-13.94,1.39-28.38,1.62-42.5.33-31.51,1.43-98.37,1.23-130.7l20.26.39.31-14.69C351.13,1.23,315.1.25,296.24,0Z"/><path class="cls-3" d="M117.13,226.52c1.79,0,6.26-1.34,8.45-1.75,21.89-4.07,41.26-2.35,62.62,2.95,20.88,5.19,40,12.49,60.94,17.9,22.25,5.76,46.57,8.23,71.28,4.85,22.88-3.13,45.52-10.54,64.39-19.29-1.76-2.57-17.74-13.48-19.86-14.81-3-1.88-19.06-11.37-22.68-12.1-.73,5.24-4.91,14.19-7.23,17.87-16.2,25.89-45.87,27.84-71,12.16a83.22,83.22,0,0,1-7.49-5.4,81.59,81.59,0,0,1-12.7-13.28c-4.53-5.93-6.53-9.68-10.16-16.12-1.16-2-4.12-6.67-4.74-8.54a42,42,0,0,1,5,2.59l15.3,8.08a139.18,139.18,0,0,0,21.95,9.07c11.29,3.34,28,6.69,34.94-6.13,1.42-2.61,3.5-8.46,3.33-12-3.79-.76-7.65-1.79-11.59-2.62a218.64,218.64,0,0,0-38.75-4c-43.92-.48-84.18,10.55-122.7,29.92-3.37,1.7-6.68,3.45-9.87,5.27-1.15.66-9.12,5.31-9.49,5.39Z"/><path class="cls-3" d="M107.06,225.58l10.51-5.44c57.28-29,121.27-48.67,185.92-33.56,2.1.5,4.32,1.17,6.41,1.51l1.11-32.4c-4.78-2.12-23.52-3.76-29.47-4-47.61-1.5-96.6,17.92-135,43.07a297.24,297.24,0,0,0-37.15,28.49,15,15,0,0,0-2.34,2.29Z"/><path class="cls-3" d="M343.14,200c1.91,1.17,10,4.86,13.67,6.87,15,8.19,19.85,12.09,32.75,21.44l12.91,10.52c.48.45.82.86,1.3,1.32s.89.74,1.43,1.22l8.22,7.35c1,.91,1.72,1.72,2.68,2.63L431.88,267c1.81,1.8,3.49,3.53,5.18,5.31-1.17-2.75-7.48-11.88-9.5-15-6.15-9.4-11.76-15.81-18.77-23.82-2-2.27-12.27-12.23-12.27-12.23-.8-1.12-1.68-2.68-2.43-3.92-6.48-10.57-13.29-18.62-21.58-27.32l-3-3c-2.94-2.88-5.05-4.46-8.08-7-.6-.53-1.16-.84-1.78-1.34-2.48-2.08-11.25-8.17-14.6-9.69,0,5.08-.41,10.5-.69,15.54-.17,2.59-.33,5.16-.53,7.73a71,71,0,0,0-.65,7.64Z"/><text class="cls-4" transform="translate(0 362.05) scale(1.3 1)">FENCE AND LANDSCAPE GROUP</text></g></g></svg>